<svg width="32" height="31" viewBox="0 0 32 31" fill="none" xmlns="http://www.w3.org/2000/svg">
<path d="M19.0625 11.25V0.5H31.5625C31.5625 1.25 31.5417 2.625 31.5 4.625C31.4583 6.625 31.4167 8.0625 31.375 8.9375C31.3333 9.77083 31.2292 11.0833 31.0625 12.875C30.9375 14.625 30.75 15.9792 30.5 16.9375C30.2917 17.8542 29.9583 19.0417 29.5 20.5C29.0833 21.9583 28.5417 23.1667 27.875 24.125C27.25 25.0833 26.4583 26.1042 25.5 27.1875C24.5833 28.2708 23.5208 29.2292 22.3125 30.0625L19.125 26.125C20.2083 25.2083 21.2917 23.5417 22.375 21.125C23.4583 18.6667 24.0417 15.7708 24.125 12.4375L19.0625 11.25ZM0.25 11.25V0.5H12.8125C12.8125 1.41667 12.7917 3 12.75 5.25C12.75 7.45833 12.7292 9.10417 12.6875 10.1875C12.6458 11.2292 12.5417 12.6875 12.375 14.5625C12.25 16.4375 11.9792 17.9583 11.5625 19.125C11.1875 20.25 10.6875 21.5417 10.0625 23C9.4375 24.4583 8.60417 25.75 7.5625 26.875C6.5625 28 5.375 29.0625 4 30.0625L0.875 26.125C1.95833 25.1667 3.04167 23.4792 4.125 21.0625C5.20833 18.6042 5.79167 15.7083 5.875 12.375L4.5 12.125C3.54167 11.9583 2.58333 11.7708 1.625 11.5625L0.25 11.25Z" fill="black"/>
</svg>
